<svg width="61" height="64" viewBox="0 0 61 64" fill="none" xmlns="http://www.w3.org/2000/svg">
<g id="picture-1">
<g id="shape">
<path d="M18.4271 23.0377C21.2345 23.0377 23.5104 20.6872 23.5104 17.7877C23.5104 14.8882 21.2345 12.5377 18.4271 12.5377C15.6196 12.5377 13.3438 14.8882 13.3438 17.7877C13.3438 20.6872 15.6196 23.0377 18.4271 23.0377Z" fill="#238551"/>
<path fill-rule="evenodd" clip-rule="evenodd" d="M5.08334 3.125C5.08334 1.67525 6.22129 0.5 7.62501 0.5H27.8789H47.1449C47.7676 0.5 48.3548 0.790045 48.7332 1.28457L55.505 10.1339C55.772 10.4828 55.9167 10.9099 55.9167 11.3493V60.3828C55.9167 61.8326 54.7787 63.0078 53.375 63.0078H30.5H7.62501C6.22129 63.0078 5.08334 61.8326 5.08334 60.3828V3.125ZM12.1667 57.7578C11.0621 57.7578 10.1667 56.8624 10.1667 55.7578V7.75C10.1667 6.64543 11.0621 5.75 12.1667 5.75H27.9583H44.7491C45.3791 5.75 45.9723 6.04685 46.35 6.55112L50.4342 12.0047C50.6933 12.3507 50.8333 12.7714 50.8333 13.2036V55.7578C50.8333 56.8624 49.9379 57.7578 48.8334 57.7578H29.5469H12.1667Z" fill="#238551"/>
<path d="M28.2109 15.1627C27.1064 15.1627 26.2109 16.0582 26.2109 17.1627V18.1875C26.2109 19.2921 27.1064 20.1875 28.2109 20.1875H44.7031C45.8077 20.1875 46.7031 19.2921 46.7031 18.1875V17.1627C46.7031 16.0582 45.8077 15.1627 44.7031 15.1627H28.2109Z" fill="#238551"/>
<path d="M15.25 28.3489C14.1972 28.3489 13.3438 29.2303 13.3438 30.3176V31.4049C13.3438 32.4922 14.1972 33.3737 15.25 33.3737L44.7969 33.3737C45.8497 33.3737 46.7031 32.4922 46.7031 31.4049V30.3176C46.7031 29.2303 45.8497 28.3489 44.7969 28.3489L15.25 28.3489Z" fill="#238551"/>
<path d="M15.25 40.2643C14.1972 40.2643 13.3438 41.1457 13.3438 42.233V43.3203C13.3438 44.4076 14.1972 45.2891 15.25 45.2891H44.7969C45.8497 45.2891 46.7031 44.4076 46.7031 43.3203V42.233C46.7031 41.1457 45.8497 40.2643 44.7969 40.2643H15.25Z" fill="#238551"/>
</g>
</g>
</svg>
